<svg xmlns="http://www.w3.org/2000/svg" width="220.573" height="151.023" viewBox="0 0 220.573 151.023">
  <g id="Group_148" data-name="Group 148" transform="translate(-54.041 -54.041)">
    <g id="Group_144" data-name="Group 144" transform="translate(64.688 142.119)">
      <g id="Group_143" data-name="Group 143">
        <path id="Path_508" data-name="Path 508" d="M92.737,144.318H85a.77.77,0,0,0-.769.769V159.8H74.187V145.087a.77.77,0,0,0-.769-.769H65.68a.769.769,0,0,0-.768.769v38.692a.768.768,0,0,0,.768.768h7.738a.769.769,0,0,0,.769-.768V169.07H84.231v14.709a.769.769,0,0,0,.769.768h7.737a.769.769,0,0,0,.769-.768V145.087A.77.77,0,0,0,92.737,144.318Z" transform="translate(-64.912 -143.979)" fill="#002e5d"/>
        <path id="Path_509" data-name="Path 509" d="M129.96,144.318h-7.684a.77.77,0,0,0-.769.769V170.25c0,3.655-2.855,5.32-5.508,5.32s-5.51-1.665-5.51-5.32V145.087a.769.769,0,0,0-.768-.769h-7.738a.769.769,0,0,0-.768.769V170.3a14.041,14.041,0,0,0,4.633,10.927,15.286,15.286,0,0,0,10.124,3.639c10.139,0,14.757-7.55,14.757-14.567V145.087A.769.769,0,0,0,129.96,144.318Z" transform="translate(-65.66 -143.979)" fill="#002e5d"/>
        <path id="Path_510" data-name="Path 510" d="M170.553,144.717a.767.767,0,0,0-.673-.4h-9.471a.77.77,0,0,0-.661.376l-7.24,12.2-7.241-12.2a.767.767,0,0,0-.66-.376h-9.416a.769.769,0,0,0-.649,1.18L147.9,166.577v17.2a.768.768,0,0,0,.768.768h7.684a.769.769,0,0,0,.769-.768v-17.2L170.529,145.5A.77.77,0,0,0,170.553,144.717Z" transform="translate(-66.344 -143.979)" fill="#002e5d"/>
        <path id="Path_511" data-name="Path 511" d="M201.315,163.63h-7.846a.768.768,0,0,0-.768.768v10.97a10.642,10.642,0,0,1-1.4.113c-7.221,0-10.607-5.617-10.7-10.835-.091-5.25,3.226-11.017,10.717-11.277a17.728,17.728,0,0,1,7.8,1.346.769.769,0,0,0,1.066-.617l.92-7.847a.769.769,0,0,0-.539-.824l-.209-.068a26.3,26.3,0,0,0-9.082-1.373c-14.254.517-20.559,11.142-20.383,20.794.179,9.926,7.249,19.976,20.412,19.976a20.9,20.9,0,0,0,10.388-2.7.767.767,0,0,0,.391-.67V164.4A.768.768,0,0,0,201.315,163.63Z" transform="translate(-67.095 -143.972)" fill="#002e5d"/>
        <path id="Path_512" data-name="Path 512" d="M237.672,144.318h-7.737a.77.77,0,0,0-.769.769V159.8H219.121V145.087a.769.769,0,0,0-.768-.769h-7.738a.769.769,0,0,0-.768.769v38.692a.768.768,0,0,0,.768.768h7.738a.768.768,0,0,0,.768-.768V169.07h10.045v14.709a.769.769,0,0,0,.769.768h7.737a.768.768,0,0,0,.769-.768V145.087A.769.769,0,0,0,237.672,144.318Z" transform="translate(-67.898 -143.979)" fill="#002e5d"/>
        <path id="Path_513" data-name="Path 513" d="M267.163,175.273H255.646v-6.2h9.406a.769.769,0,0,0,.768-.769v-7.738a.768.768,0,0,0-.768-.768h-9.406v-6.2h10.866a.768.768,0,0,0,.769-.768v-7.738a.769.769,0,0,0-.769-.769H247.14a.769.769,0,0,0-.768.769v38.692a.768.768,0,0,0,.768.768h20.023a.768.768,0,0,0,.768-.768v-7.738A.768.768,0,0,0,267.163,175.273Z" transform="translate(-68.65 -143.979)" fill="#002e5d"/>
      </g>
    </g>
    <path id="Path_514" data-name="Path 514" d="M182.212,69.886h-11.68V55.878a1.6,1.6,0,0,1,.668-1.3l.772-.542h-11.32l.663.53A1.7,1.7,0,0,1,162,55.927s0,16.119,0,24.786-9.27,13.173-11.679,13.525h21.56l-.662-.53a1.7,1.7,0,0,1-.683-1.356V83.406C170.6,74.6,179.8,70.237,182.212,69.886Z" transform="translate(-1.983 0)" fill="#002e5d"/>
    <path id="Path_515" data-name="Path 515" d="M150.174,54.583l.772-.542H139.627l.663.53a1.7,1.7,0,0,1,.682,1.356V92.351a1.7,1.7,0,0,1-.682,1.356l-.663.53h9.88V55.878A1.6,1.6,0,0,1,150.174,54.583Z" transform="translate(-1.763 0)" fill="#002e5d"/>
    <path id="Path_516" data-name="Path 516" d="M191.991,92.351V55.878a1.6,1.6,0,0,1,.668-1.3l.771-.542H182.111l.663.53a1.7,1.7,0,0,1,.684,1.356V92.351a1.7,1.7,0,0,1-.684,1.356l-.663.53h11.225l-.662-.53A1.7,1.7,0,0,1,191.991,92.351Z" transform="translate(-2.638 0)" fill="#002e5d"/>
    <g id="Group_146" data-name="Group 146" transform="translate(54.041 119.174)">
      <g id="Group_145" data-name="Group 145" transform="translate(0 0)">
        <path id="Path_517" data-name="Path 517" d="M54.041,121.062h5.752a3.994,3.994,0,0,1,4.124,4.409,3.557,3.557,0,0,1-1.341,2.867,3.528,3.528,0,0,1,1.5,2.9,4.319,4.319,0,0,1-4.288,4.369H54.041Zm2.926,5.832h2.582a1.469,1.469,0,0,0,0-2.926H56.967Zm0,5.813h2.582a1.445,1.445,0,0,0,1.463-1.464,1.428,1.428,0,0,0-1.463-1.444H56.967Z" transform="translate(-54.041 -120.555)" fill="#002e5d"/>
        <path id="Path_518" data-name="Path 518" d="M74.163,135.612l-2.925-5.547h-1.4v5.547H66.929V121.084H72.66c5.181,0,5.688,7.295,1.421,8.534l3.374,5.995Zm-4.328-8.373H72.4c1.972,0,1.972-3.251,0-3.251h-2.56Z" transform="translate(-54.307 -120.555)" fill="#002e5d"/>
        <path id="Path_519" data-name="Path 519" d="M86.631,120.834c10,0,10,14.977,0,14.977S76.633,120.834,86.631,120.834Zm0,2.987c-5.812,0-5.812,8.982,0,8.982S92.442,123.821,86.631,123.821Z" transform="translate(-54.558 -120.55)" fill="#002e5d"/>
        <path id="Path_520" data-name="Path 520" d="M97.146,130.552v-9.468h2.906v9.448c0,3.049,4.715,3.049,4.715,0v-9.448h2.884v9.468C107.651,137.462,97.146,137.462,97.146,130.552Z" transform="translate(-54.929 -120.555)" fill="#002e5d"/>
        <path id="Path_521" data-name="Path 521" d="M115.573,135.917l-5.954-14.833h3.272l2.926,7.416,2.845-7.275h.141l2.845,7.275,2.925-7.416h3.271l-5.932,14.773h-.528l-2.663-6.443-2.641,6.5Z" transform="translate(-55.186 -120.555)" fill="#002e5d"/>
        <path id="Path_522" data-name="Path 522" d="M130.04,135.612V121.084h7.275v2.9h-4.369v2.906h3.82v2.9h-3.82v2.908h4.613v2.9Z" transform="translate(-55.607 -120.555)" fill="#002e5d"/>
        <path id="Path_523" data-name="Path 523" d="M147.733,135.612l-2.926-5.547h-1.4v5.547H140.5V121.084h5.73c5.182,0,5.689,7.295,1.422,8.534l3.374,5.995ZM143.4,127.24h2.56c1.972,0,1.972-3.251,0-3.251H143.4Z" transform="translate(-55.822 -120.555)" fill="#002e5d"/>
        <path id="Path_524" data-name="Path 524" d="M153.221,135.612V121.084h2.906v14.528Z" transform="translate(-56.084 -120.555)" fill="#002e5d"/>
        <path id="Path_525" data-name="Path 525" d="M158.535,132.708h2.783a1.463,1.463,0,0,0,1.484-1.464V121.084h2.885v10.159a4.32,4.32,0,0,1-4.288,4.369h-2.865Z" transform="translate(-56.194 -120.555)" fill="#002e5d"/>
        <path id="Path_526" data-name="Path 526" d="M180.969,121.062h5.75a3.993,3.993,0,0,1,4.125,4.409,3.563,3.563,0,0,1-1.341,2.867,3.527,3.527,0,0,1,1.5,2.9,4.32,4.32,0,0,1-4.288,4.369h-5.75Zm2.925,5.832h2.581a1.469,1.469,0,0,0,0-2.926h-2.581Zm0,5.813h2.581a1.445,1.445,0,0,0,1.463-1.464,1.428,1.428,0,0,0-1.463-1.444h-2.581Z" transform="translate(-56.656 -120.555)" fill="#002e5d"/>
        <path id="Path_527" data-name="Path 527" d="M201.09,135.612l-2.926-5.547h-1.4v5.547h-2.906V121.084h5.729c5.182,0,5.69,7.295,1.423,8.534l3.373,5.995Zm-4.328-8.373h2.56c1.971,0,1.971-3.251,0-3.251h-2.56Z" transform="translate(-56.921 -120.555)" fill="#002e5d"/>
        <path id="Path_528" data-name="Path 528" d="M211.367,120.544h.3l6.117,15.057h-3.272l-.589-1.564h-4.817l-.569,1.564H205.25Zm1.483,10.769-1.322-3.779-1.36,3.779Z" transform="translate(-57.156 -120.544)" fill="#002e5d"/>
        <path id="Path_529" data-name="Path 529" d="M219.811,131.628a6.527,6.527,0,0,0,4.145,1.159,1.466,1.466,0,0,0,1.5-1.464c-.061-.833-.69-1.2-1.5-1.484-2.275-.832-4.306-1.991-4.306-4.429a4.259,4.259,0,0,1,4.1-4.431,8.609,8.609,0,0,1,3.618.61L227,124.394a6.585,6.585,0,0,0-2.967-.61,1.437,1.437,0,0,0-1.443,1.626c.081.812.792,1.178,1.626,1.463,2.255.832,4.207,2.133,4.207,4.449a4.31,4.31,0,0,1-4.39,4.41,9.086,9.086,0,0,1-4.592-1.057Z" transform="translate(-57.449 -120.553)" fill="#002e5d"/>
        <path id="Path_530" data-name="Path 530" d="M230.788,131.628a6.53,6.53,0,0,0,4.146,1.159,1.466,1.466,0,0,0,1.5-1.464c-.061-.833-.69-1.2-1.5-1.484-2.275-.832-4.307-1.991-4.307-4.429a4.26,4.26,0,0,1,4.1-4.431,8.613,8.613,0,0,1,3.618.61l-.366,2.805a6.586,6.586,0,0,0-2.968-.61,1.437,1.437,0,0,0-1.442,1.626c.081.812.792,1.178,1.626,1.463,2.255.832,4.206,2.133,4.206,4.449a4.309,4.309,0,0,1-4.39,4.41,9.083,9.083,0,0,1-4.591-1.057Z" transform="translate(-57.675 -120.553)" fill="#002e5d"/>
        <path id="Path_531" data-name="Path 531" d="M242.087,135.612V121.084h7.275v2.9h-4.369v2.906h3.821v2.9h-3.821v2.908h4.613v2.9Z" transform="translate(-57.915 -120.555)" fill="#002e5d"/>
        <path id="Path_532" data-name="Path 532" d="M259.78,135.612l-2.926-5.547h-1.4v5.547h-2.9V121.084h5.729c5.182,0,5.69,7.295,1.422,8.534l3.374,5.995Zm-4.328-8.373h2.56c1.972,0,1.972-3.251,0-3.251h-2.56Z" transform="translate(-58.131 -120.555)" fill="#002e5d"/>
        <path id="Path_533" data-name="Path 533" d="M265.269,135.612V121.084h2.9v14.528Z" transform="translate(-58.393 -120.555)" fill="#002e5d"/>
        <path id="Path_534" data-name="Path 534" d="M271.578,135.612V121.084h7.274v2.9h-4.368v2.906h3.82v2.9h-3.82v2.908H279.1v2.9Z" transform="translate(-58.523 -120.555)" fill="#002e5d"/>
      </g>
      <circle id="Ellipse_17" data-name="Ellipse 17" cx="2.182" cy="2.182" r="2.182" transform="translate(114.96 5.821)" fill="#002e5d"/>
    </g>
    <g id="Group_147" data-name="Group 147" transform="translate(112.57 189.702)">
      <path id="Path_535" data-name="Path 535" d="M119.917,192.556h.3l6.117,15.057h-3.272l-.59-1.564h-4.816l-.569,1.564H113.8Zm1.483,10.77-1.32-3.779-1.361,3.779Z" transform="translate(-113.801 -192.556)" fill="#002e5d"/>
      <path id="Path_536" data-name="Path 536" d="M131.587,207.618h-2.9V192.784h.772l7.336,8.535v-8.21h2.926v14.813h-.773l-7.356-8.208Z" transform="translate(-114.108 -192.561)" fill="#002e5d"/>
      <path id="Path_537" data-name="Path 537" d="M146.2,207.618h-2.9V192.784h.772l7.336,8.535v-8.21h2.926v14.813h-.772l-7.357-8.208Z" transform="translate(-114.409 -192.561)" fill="#002e5d"/>
      <path id="Path_538" data-name="Path 538" d="M164.881,192.847c10,0,10,14.976,0,14.976S154.884,192.847,164.881,192.847Zm0,2.987c-5.812,0-5.812,8.981,0,8.981S170.693,195.834,164.881,195.834Z" transform="translate(-114.699 -192.562)" fill="#002e5d"/>
      <path id="Path_539" data-name="Path 539" d="M180.336,193.116H185.6v14.509h-2.886v-11.6h-2.377Z" transform="translate(-115.172 -192.568)" fill="#002e5d"/>
      <path id="Path_540" data-name="Path 540" d="M196.879,203.459a4.148,4.148,0,0,1-4.409,4.328c-3.5-.081-5.1-3.413-3.8-6.564l3.372-8.107h3.151l-2.541,6.137A3.873,3.873,0,0,1,196.879,203.459Zm-5.914-.062a1.525,1.525,0,0,0,3.048.041A1.525,1.525,0,1,0,190.965,203.4Z" transform="translate(-115.334 -192.568)" fill="#002e5d"/>
      <path id="Path_541" data-name="Path 541" d="M207.747,203.357a4.276,4.276,0,0,1-4.369,4.39,13.494,13.494,0,0,1-4.634-.651l.264-2.884c4.511,1.544,5.812.3,5.791-.915,0-1.707-1.077-2.235-5.507-2.56V193.1h7.4v2.783h-4.471v2.541C205.876,198.744,207.747,200,207.747,203.357Z" transform="translate(-115.551 -192.567)" fill="#002e5d"/>
      <path id="Path_542" data-name="Path 542" d="M214.783,207.6v-3.637h-6.056l4.124-10.871H215.9l-2.967,7.965h1.849V198.6l2.906-1.951v4.41h1.585v2.906h-1.585V207.6Z" transform="translate(-115.757 -192.567)" fill="#002e5d"/>
    </g>
  </g>
</svg>
